<svg width="69" height="74" viewBox="0 0 69 74" fill="none" xmlns="http://www.w3.org/2000/svg">
<path d="M13.6364 68.2876C11.1986 68.3959 8.19636 67.0686 7 66.3914C9.37015 67.2718 11.5371 67.4072 13.6364 67.4072C15.7357 67.4072 16.9546 66.8655 18.0381 66.4592C19.1216 66.0529 21.0177 65.2402 22.9816 65.2402C24.9454 65.2402 27.1801 65.8497 29.3471 66.8655C31.0807 67.6781 33.0942 67.8813 33.8843 67.8813V68.897C31.785 68.9648 29.9566 68.2199 28.4668 67.5427C26.977 66.8655 25.6226 66.3237 22.9816 66.3237C20.476 66.3237 18.9862 67.0009 18.309 67.2718C17.6898 67.5195 16.6838 68.1521 13.6364 68.2876Z" fill="#F8F8F8"></path>
<path d="M29.5321 71.4026C30.8865 72.0527 32.9979 72.3055 33.8843 72.3507V73.231C32.4126 73.231 31.0897 73.0956 28.3132 71.8767C25.5368 70.6577 24.047 70.4546 22.4894 70.4546C20.9319 70.4546 19.713 70.9963 18.9681 71.1995C18.2232 71.4026 17.3428 71.8089 15.5144 71.8767C14.0517 71.9308 12.1962 71.1769 11.4513 70.7932C13.9569 71.5381 15.853 71.3349 17.8846 70.7254C19.9161 70.116 20.661 69.7097 22.828 69.6419C24.995 69.5742 27.8392 70.59 29.5321 71.4026Z" fill="#F8F8F8"></path>
<path d="M13.6364 68.2876C11.1986 68.3959 8.19636 67.0686 7 66.3914C9.37015 67.2718 11.5371 67.4072 13.6364 67.4072C15.7357 67.4072 16.9546 66.8655 18.0381 66.4592C19.1216 66.0529 21.0177 65.2402 22.9816 65.2402C24.9454 65.2402 27.1801 65.8497 29.3471 66.8655C31.0807 67.6781 33.0942 67.8813 33.8843 67.8813V68.897C31.785 68.9648 29.9566 68.2199 28.4668 67.5427C26.977 66.8655 25.6226 66.3237 22.9816 66.3237C20.476 66.3237 18.9862 67.0009 18.309 67.2718C17.6898 67.5195 16.6838 68.1521 13.6364 68.2876Z" stroke="#F8F8F8" stroke-width="1.08728"></path>
<path d="M29.5321 71.4026C30.8865 72.0527 32.9979 72.3055 33.8843 72.3507V73.231C32.4126 73.231 31.0897 73.0956 28.3132 71.8767C25.5368 70.6577 24.047 70.4546 22.4894 70.4546C20.9319 70.4546 19.713 70.9963 18.9681 71.1995C18.2232 71.4026 17.3428 71.8089 15.5144 71.8767C14.0517 71.9308 12.1962 71.1769 11.4513 70.7932C13.9569 71.5381 15.853 71.3349 17.8846 70.7254C19.9161 70.116 20.661 69.7097 22.828 69.6419C24.995 69.5742 27.8392 70.59 29.5321 71.4026Z" stroke="#F8F8F8" stroke-width="1.08728"></path>
<path d="M54.1142 68.2876C56.5521 68.3959 59.5543 67.0686 60.7506 66.3914C58.3805 67.2718 56.2135 67.4072 54.1142 67.4072C52.0149 67.4072 50.796 66.8655 49.7125 66.4592C48.629 66.0529 46.7329 65.2402 44.7691 65.2402C42.8052 65.2402 40.5705 65.8497 38.4035 66.8655C36.6699 67.6781 34.6564 67.8813 33.8664 67.8813V68.897C35.9656 68.9648 37.794 68.2199 39.2839 67.5427C40.7737 66.8655 42.128 66.3237 44.7691 66.3237C47.2746 66.3237 48.7645 67.0009 49.4416 67.2718C50.0609 67.5195 51.0669 68.1521 54.1142 68.2876Z" fill="#F8F8F8"></path>
<path d="M38.2185 71.4026C36.8641 72.0527 34.7528 72.3055 33.8664 72.3507V73.231C35.3381 73.231 36.661 73.0956 39.4374 71.8767C42.2139 70.6577 43.7037 70.4546 45.2612 70.4546C46.8187 70.4546 48.0377 70.9963 48.7826 71.1995C49.5275 71.4026 50.4078 71.8089 52.2362 71.8767C53.6989 71.9308 55.5544 71.1769 56.2993 70.7932C53.7937 71.5381 51.8976 71.3349 49.8661 70.7254C47.8345 70.116 47.0896 69.7097 44.9226 69.6419C42.7556 69.5742 39.9115 70.59 38.2185 71.4026Z" fill="#F8F8F8"></path>
<path d="M54.1142 68.2876C56.5521 68.3959 59.5543 67.0686 60.7506 66.3914C58.3805 67.2718 56.2135 67.4072 54.1142 67.4072C52.0149 67.4072 50.796 66.8655 49.7125 66.4592C48.629 66.0529 46.7329 65.2402 44.7691 65.2402C42.8052 65.2402 40.5705 65.8497 38.4035 66.8655C36.6699 67.6781 34.6564 67.8813 33.8664 67.8813V68.897C35.9656 68.9648 37.794 68.2199 39.2839 67.5427C40.7737 66.8655 42.128 66.3237 44.7691 66.3237C47.2746 66.3237 48.7645 67.0009 49.4416 67.2718C50.0609 67.5195 51.0669 68.1521 54.1142 68.2876Z" stroke="#F8F8F8" stroke-width="1.08728"></path>
<path d="M38.2185 71.4026C36.8641 72.0527 34.7528 72.3055 33.8664 72.3507V73.231C35.3381 73.231 36.661 73.0956 39.4374 71.8767C42.2139 70.6577 43.7037 70.4546 45.2612 70.4546C46.8187 70.4546 48.0377 70.9963 48.7826 71.1995C49.5275 71.4026 50.4078 71.8089 52.2362 71.8767C53.6989 71.9308 55.5544 71.1769 56.2993 70.7932C53.7937 71.5381 51.8976 71.3349 49.8661 70.7254C47.8345 70.116 47.0896 69.7097 44.9226 69.6419C42.7556 69.5742 39.9115 70.59 38.2185 71.4026Z" stroke="#F8F8F8" stroke-width="1.08728"></path>
<path d="M22.9202 6.79265C24.3046 4.57978 30.672 0.0078125 30.672 0.0078125L30.7672 53.9457H21.2158H11.5692V52.3778L11.569 52.3691C11.5664 52.2144 11.566 52.1892 11.3909 52.1892C10.8722 52.1892 10.1768 51.9737 9.76965 51.5023C9.12435 50.7551 8.90619 50.223 8.80065 49.0106C8.77552 47.8302 8.90274 47.2979 9.49278 46.6574C10.343 45.966 10.9211 45.6974 12.2613 46.519C11.4163 47.4201 11.4497 48.0568 11.9889 48.5723C12.6025 49.1589 13.784 49.2875 13.784 49.2875C13.784 49.2875 14.4273 49.4344 14.4761 49.0106V46.519C14.448 46.2217 14.393 46.0875 14.1992 45.8268C12.5326 44.2232 12.5326 40.2365 13.0762 38.7868C13.6199 37.3371 14.3447 36.431 15.5835 35.8602C16.8097 35.2951 17.2481 35.7943 18.2135 36.6907C17.2536 37.4272 17.0249 37.8927 17.5215 39.1824C17.7878 39.8741 18.3092 40.1987 19.3209 40.5667C20.2362 40.8799 20.9821 40.8419 20.9821 40.1514C20.9822 37.6597 20.9821 36.2754 20.9821 35.317C20.9006 34.7055 20.7644 34.2803 20.5668 33.9222C19.8154 32.934 19.4436 32.3665 18.9057 31.2921C18.5134 30.2955 18.3288 29.6926 18.0751 28.5236C17.9367 27.4162 17.9367 26.724 18.0751 25.4782C18.2273 24.1085 18.8751 23.5649 19.321 23.5402C19.2833 24.2777 19.3957 24.6446 19.8747 25.2014C20.4758 25.7498 20.8713 26.0142 21.6742 26.3088C22.4237 26.4686 23.2255 26.2515 23.7678 25.7394C23.1596 25.6003 22.0092 24.9123 21.2308 23.7461C20.5321 22.6992 19.7362 21.4109 19.7362 19.8027C19.6831 18.6553 19.7353 18.0492 20.0131 17.0342C20.3628 15.7583 21.412 15.229 22.0895 15.2347C21.8982 15.9547 21.9421 16.3421 22.3664 17.0342C22.8059 17.5539 23.2242 17.766 23.8891 17.7264C24.4927 17.6903 25.5221 16.7683 24.9965 15.5115C24.4303 14.1579 23.6865 13.4976 22.9202 12.3267C21.7181 10.4902 21.5358 9.00552 22.9202 6.79265Z" fill="#F8F8F8"></path>
<path d="M10.2476 55.8223H30.7247V58.1298H10.2476V55.8223Z" fill="#F8F8F8"></path>
<rect x="7.70996" y="59.4102" width="25.3826" height="2.30751" fill="#F8F8F8"></rect>
<path d="M45.7905 6.78483C44.4061 4.57196 38.0387 0 38.0387 0L37.9434 53.9379H47.4948H57.1415V52.37L57.1416 52.3613C57.1443 52.2066 57.1447 52.1814 57.3198 52.1814C57.8384 52.1814 58.5339 51.9659 58.941 51.4945C59.5863 50.7473 59.8045 50.2152 59.91 49.0028C59.9351 47.8224 59.8079 47.2901 59.2179 46.6496C58.3677 45.9582 57.7895 45.6896 56.4494 46.5112C57.2944 47.4123 57.2609 48.049 56.7217 48.5645C56.1082 49.1511 54.9267 49.2797 54.9267 49.2797C54.9267 49.2797 54.2833 49.4266 54.2346 49.0028V46.5112C54.2627 46.2139 54.3177 46.0797 54.5114 45.819C56.1781 44.2154 56.1781 40.2287 55.6344 38.779C55.0908 37.3293 54.366 36.4232 53.1272 35.8524C51.9009 35.2873 51.4626 35.7865 50.4971 36.6829C51.4571 37.4194 51.6857 37.8849 51.1892 39.1746C50.9229 39.8663 50.4015 40.1909 49.3897 40.5588C48.4744 40.8721 47.7286 40.8341 47.7286 40.1436C47.7285 37.6519 47.7286 36.2676 47.7286 35.3092C47.8101 34.6976 47.9463 34.2725 48.1439 33.9144C48.8952 32.9262 49.2671 32.3586 49.805 31.2843C50.1973 30.2877 50.3818 29.6848 50.6355 28.5158C50.774 27.4084 50.774 26.7162 50.6355 25.4704C50.4833 24.1007 49.8356 23.5571 49.3897 23.5324C49.4273 24.2699 49.3149 24.6368 48.836 25.1935C48.2349 25.742 47.8393 26.0064 47.0365 26.301C46.287 26.4607 45.4851 26.2436 44.9428 25.7316C45.5511 25.5925 46.7014 24.9045 47.4798 23.7383C48.1786 22.6914 48.9744 21.4031 48.9744 19.7949C49.0275 18.6475 48.9754 18.0414 48.6976 17.0264C48.3479 15.7505 47.2986 15.2212 46.6211 15.2269C46.8124 15.9469 46.7685 16.3342 46.3443 17.0264C45.9047 17.5461 45.4865 17.7582 44.8216 17.7185C44.218 17.6825 43.1885 16.7604 43.7142 15.5037C44.2804 14.1501 45.0241 13.4897 45.7905 12.3189C46.9925 10.4824 47.1749 8.99771 45.7905 6.78483Z" fill="#F8F8F8"></path>
<path d="M58.4631 55.8145H37.986V58.122H58.4631V55.8145Z" fill="#F8F8F8"></path>
<rect width="25.3826" height="2.30751" transform="matrix(-1 0 0 1 61 59.4062)" fill="#F8F8F8"></rect>
</svg>
